# xmcd
#
# Track frame offsets: 
#        200
#        18025
#        38950
#        67050
#
# Disc length: 1198 seconds
#
# Revision: 0
# Processed by: cddbd v1.5.2PL0 Copyright (c) Steve Scherf et al.
# Submitted via: ExactAudioCopy v0.99pb5
#
DISCID=2c04ac04
DTITLE=R. Kelly - She's Got That Vibe
DYEAR=1994
DGENRE=R&B
TTITLE0=She's Got That Vibe
TTITLE1=Dedicated
TTITLE2=She's Got That Vibe
TTITLE3=Slow Dance
EXTD=
EXTT0=
EXTT1=
EXTT2=
EXTT3=
PLAYORDER=
